<mxfile host="app.diagrams.net" modified="2024-01-22T14:54:10.979Z" agent="Mozilla/5.0 (X11; Ubuntu; Linux x86_64; rv:109.0) Gecko/20100101 Firefox/119.0" version="22.1.21" etag="bKlZbzjPRzkjJxR0v-kk" type="github">
  <diagram name="Page-1" id="FGgASoOX6YVbCQh99lnt">
    <mxGraphModel>
      <root>
        <mxCell id="0" />
        <mxCell id="1" parent="0" />
      </root>
    </mxGraphModel>
  </diagram>
</mxfile>
